<svg id="Layer_1" data-name="Layer 1" xmlns="http://www.w3.org/2000/svg" viewBox="0 0 512 512"><title>sport-shirt-flat</title><rect y="9.14" width="512" height="493.72" rx="54.99" ry="54.99" transform="translate(512) rotate(90)" fill="#e6d6a6"/><rect x="20.23" y="11.1" width="471.53" height="489.81" rx="43.89" ry="43.89" fill="#57595b"/><polygon points="78.05 213.08 128.06 263.1 143.48 247.68 93.47 197.68 78.05 213.08" fill="#e6d6a6"/><polygon points="418.1 197.24 368.09 247.23 383.94 263.1 433.95 213.08 418.1 197.24" fill="#e6d6a6"/><path d="M161.16,378.62a8.07,8.07,0,0,0,8.06,8.06H343a8.07,8.07,0,0,0,8-8.06V358.34H161.16Z" fill="#e6d6a6"/><path d="M349.14,128.28a8,8,0,0,0-6.18-3H290.18l-5.36,9.29-28.74,49.75L227.36,134.6,222,125.32H169.22a8.07,8.07,0,0,0-5.44,2.14l-.05,0L100.9,190.24l50,50L161.16,230V340.3H351V230.17l9.64,9.64,50-50ZM243.78,237.66c0,4.31-.85,7.46-4.2,10.47,3.35,3,4.2,6.16,4.2,10.47v20.75A10.55,10.55,0,0,1,233,290.15H195.84c-2.81,0-5.4-1.5-5.4-5.4s2.59-5.39,5.4-5.39H233V261.42c0-6.05-2.39-7.88-5.42-7.88H206.42c-2.81,0-5.4-1.51-5.4-5.41s2.59-5.4,5.4-5.4h21.16c3,0,5.42-1.83,5.42-7.88V216.93H195.84c-2.81,0-5.4-1.52-5.4-5.42s2.59-5.4,5.4-5.4H233a10.57,10.57,0,0,1,10.78,10.82Zm77.78,0c0,4.31-.85,7.46-4.2,10.47,3.35,3,4.2,6.16,4.2,10.47v20.75a10.55,10.55,0,0,1-10.8,10.79H273.6c-2.79,0-5.4-1.5-5.4-5.4s2.61-5.39,5.4-5.39h37.16V261.42c0-6.05-2.37-7.88-5.4-7.88H284.18c-2.79,0-5.4-1.51-5.4-5.41s2.61-5.4,5.4-5.4h21.18c3,0,5.4-1.83,5.4-7.88V216.93H273.6c-2.79,0-5.4-1.52-5.4-5.42s2.61-5.4,5.4-5.4h37.16a10.57,10.57,0,0,1,10.8,10.82Z" fill="#e6d6a6"/></svg>