<?xml version="1.0" encoding="utf-8"?>
<!-- Svg Vector Icons : http://www.onlinewebfonts.com/icon -->
<!DOCTYPE svg PUBLIC "-//W3C//DTD SVG 1.1//EN" "http://www.w3.org/Graphics/SVG/1.1/DTD/svg11.dtd">
<svg version="1.1" xmlns="http://www.w3.org/2000/svg" xmlns:xlink="http://www.w3.org/1999/xlink" x="0px" y="0px" viewBox="0 0 256 256" enable-background="new 0 0 256 256" xml:space="preserve">
<metadata> Svg Vector Icons : http://www.onlinewebfonts.com/icon </metadata>
<g><g><g><path fill="#000000" d="M84,24.9c-0.4,0.2-1.2,0.5-1.7,0.5c-0.6,0-1.5,0.4-2.1,0.8c-0.9,0.7-1.4,2.8-3.4,13.7c-2.8,15.1-2.9,16-1.1,17.8c0.7,0.7,1.1,1.2,1,1.3c-0.1,0.1-9.8,4.6-21.6,10C43.3,74.5,33.3,79.2,33,79.5c-1,1-23.6,137.9-23,139.4c0.2,0.7,1,1.4,1.5,1.7c0.6,0.3,8.8,1.1,18.3,1.8c19.6,1.6,19.9,1.5,20.7-1.7c0.3-1,3.9-16.8,7.9-35c4.1-18.2,7.6-33.3,7.7-33.4c0.1-0.1,0.2,17.1,0.2,38.3v38.5l1.2,1.1l1.1,1.2h59.1c57.6,0,59.2,0,60.3-0.9l1.1-0.9l0.2-38.7l0.2-38.7l7.6,33.8c4.2,18.6,7.8,34.4,8.1,35.2c0.9,2.6,1.6,2.7,20.9,1.1c18.3-1.4,19.3-1.7,19.8-3.9c0.3-1.4-22.4-138-23.1-138.9c-0.3-0.4-10.5-5.2-22.6-10.8c-12.2-5.6-22.2-10.3-22.3-10.3c-0.1-0.1,0.1-0.6,0.5-1c0.4-0.5,0.9-1.2,1-1.6c0.2-0.6-3.5-23-4.7-28c-0.1-0.6-1.1-1.6-2-2.3l-1.8-1.2h-43.2C100.8,24.4,84.4,24.6,84,24.9z M150.2,38.8l-9.8,6.7h-12c-6.6,0-12.4,0.2-12.8,0.4c-0.6,0.3-3.3-1.3-11.3-6.7l-10.5-7.1h33.1H160L150.2,38.8z M113.6,55.2c0,1.1-2.8,16.5-3,16.8c-0.2,0.1-26.9-17.7-27.9-18.7c-0.5-0.4-0.3-2.2,0.8-8.6c0.8-4.5,1.6-8.4,1.7-8.7c0.1-0.3,5.5,3,14.3,8.8C110.1,52,113.5,54.5,113.6,55.2z M170.3,44.1c0.9,4.7,1.4,8.8,1.3,9c-0.3,0.5-28,19.2-28.2,19c-0.5-0.5-3.1-16.9-2.8-17.4c0.4-0.6,27.2-19,27.9-19.2C168.6,35.4,169.4,39.3,170.3,44.1z M132.3,53.9c0.1,0.5,1.3,6.6,2.5,13.6c2.5,13.9,2.8,14.7,5.6,14.7c1.2,0,4.5-2,16.1-9.7c10.3-6.9,14.6-9.6,14.8-9.2c0.2,0.3,10.3,5.2,22.4,10.8c12.2,5.6,22.3,10.3,22.5,10.5c0.3,0.3,18,105.5,17.8,105.8c-0.1,0.2-27.2,3-27.4,2.8c-0.1-0.1-4.1-17.2-8.7-38c-4.7-20.8-8.8-38.4-9.1-39.1c-1.1-2.7-5.3-2.8-6.6-0.1c-0.4,0.9-0.5,15.9-0.5,54.6v53.4h-53.9H74l-0.1-54l-0.1-54l-1.3-1.1c-1.6-1.4-3.2-1.5-4.6-0.3c-1.1,0.9-1.5,2.5-15.1,63l-3.8,16.8l-1.2-0.2c-0.7-0.1-6.7-1-13.5-1.9c-6.8-0.9-12.4-1.7-12.5-1.8C21.6,190.3,38.9,86,39.2,85.1c0.1-0.3,10.4-5.3,22.7-11l22.5-10.4l13.7,9.2c13.9,9.4,15.1,10,17.3,8.8c1.2-0.6,1.2-0.5,3.4-12.7c1-6,2.1-12,2.4-13.4l0.5-2.5h5.2C131.5,53.1,132.1,53.2,132.3,53.9z M34.5,199.8c6.8,0.9,12.4,1.7,12.6,1.8c0.3,0.3-2.7,13.4-3.2,13.9c-0.3,0.4-25.5-1.3-26-1.7c-0.1-0.1,1.9-12.7,2.4-15c0.1-0.7,0.5-1,1-0.8C21.8,198.1,27.7,198.9,34.5,199.8z M236.8,205.8c0.7,4.3,1.2,7.9,1.1,8c-0.2,0.2-22.3,2-24.6,2h-1.7l-1.6-7.4c-0.9-4.1-1.6-7.5-1.4-7.6c0.2-0.2,25.8-3.1,26.4-3C235.3,198,236.1,201.5,236.8,205.8z"/><path fill="#000000" d="M122.7,99.4c-3.1,2-4.2,5.5-2.6,8.9c1.1,2.3,3.2,3.5,6.2,3.5c3.9,0,6.4-2.6,6.4-6.7C132.7,99.9,127.1,96.7,122.7,99.4z M126.8,105.2c-0.3,0.9-1.3,1-1.3,0.2c0-0.4,0.3-0.8,0.8-0.8S126.9,104.9,126.8,105.2z"/><path fill="#000000" d="M123.1,130.8c-2.5,1.2-4,3.7-3.7,6.3c0.2,2.9,1.8,4.9,4.3,5.9c4.2,1.6,8.4-1,8.8-5.5c0.3-3.1-0.7-5.2-3.2-6.6C127.1,129.7,125.3,129.6,123.1,130.8z M126.9,136.5c0,0.7-0.9,1.1-1.4,0.8c-0.3-0.2-0.4-0.5-0.2-0.8C125.6,136,126.9,136,126.9,136.5z"/><path fill="#000000" d="M123.3,162.1c-4.4,2-5.3,8.6-1.5,11.4c3.2,2.4,6.8,2,9.4-0.9c1.2-1.5,1.5-2.1,1.5-4.3c0-2.1-0.2-2.8-1.3-4.1C129.2,161.6,126.2,160.8,123.3,162.1z M126.9,168c0,0.7-0.9,1.1-1.4,0.8c-0.3-0.2-0.4-0.5-0.2-0.8C125.6,167.5,126.9,167.5,126.9,168z"/><path fill="#000000" d="M123.9,193.4c-2,0.6-3.5,2.3-4.2,4.3c-2.1,7.2,6.5,12,11.5,6.4c1.2-1.5,1.5-2.1,1.5-4.3c0-2.1-0.2-2.8-1.3-4.1C129.3,193.3,126.8,192.5,123.9,193.4z M126.9,199.5c0,0.7-0.9,1.1-1.4,0.8c-0.3-0.2-0.4-0.5-0.2-0.8C125.6,199,126.9,199,126.9,199.5z"/></g></g></g>
</svg>